<svg width="96" height="96" xmlns="http://www.w3.org/2000/svg" xmlns:xlink="http://www.w3.org/1999/xlink" xml:space="preserve" overflow="hidden"><g transform="translate(-536 -212)"><path d="M584 285C574 285 566 277 566 267 566 257 574 249 584 249 594 249 602 257 602 267 602 277 594 285 584 285ZM564 253 552 253 552 245 564 245 564 253ZM620 237 600 237 594 227 574 227 568 237 548 237C545.8 237 544 238.8 544 241L544 289C544 291.2 545.8 293 548 293L620 293C622.2 293 624 291.2 624 289L624 241C624 238.8 622.2 237 620 237Z" fill="#557C55"/><path d="M584 257C578.4 257 574 261.4 574 267 574 272.6 578.4 277 584 277 589.6 277 594 272.6 594 267 594 261.4 589.6 257 584 257ZM584 281C576.2 281 570 274.8 570 267 570 259.2 576.2 253 584 253 591.8 253 598 259.2 598 267 598 274.8 591.8 281 584 281Z" fill="#557C55"/></g></svg>