<svg width="96" height="96" xmlns="http://www.w3.org/2000/svg" xmlns:xlink="http://www.w3.org/1999/xlink" xml:space="preserve" overflow="hidden"><g transform="translate(-748 -344)"><path d="M796 388C791 388 787 384 787 379 787 374 791 370 796 370 801 370 805 374 805 379 805 384 801 388 796 388ZM796 358C789.1 358 782.6 361.4 778.7 367.2 774.8 372.9 774 380.2 776.5 386.7L786 407.7 794.2 424.9C794.5 425.6 795.2 426 796 426 796.8 426 797.5 425.6 797.8 424.9L806 407.7 815.5 386.7C818 380.2 817.2 372.9 813.3 367.2 809.4 361.4 802.9 358 796 358Z" fill="#557C55"/></g></svg>