<svg width="96" height="96" xmlns="http://www.w3.org/2000/svg" xmlns:xlink="http://www.w3.org/1999/xlink" xml:space="preserve" overflow="hidden"><g transform="translate(-536 -354)"><path d="M621.5 429.6 609 417.1C607.3 415.4 605 414.8 602.8 415.2L598.4 410.8C602.3 405.8 604.6 399.4 604.6 392.6 604.6 376.1 591.1 362.6 574.6 362.6 558.1 362.6 544.6 376.1 544.6 392.6 544.6 409.1 558.1 422.6 574.6 422.6 581.4 422.6 587.7 420.3 592.8 416.4L597.2 420.8C596.8 423 597.4 425.3 599.1 427L611.6 439.5C613 440.9 614.8 441.6 616.6 441.6 618.4 441.6 620.2 440.9 621.6 439.5 624.2 436.7 624.2 432.3 621.5 429.6ZM574.5 416.5C561.3 416.5 550.5 405.7 550.5 392.5 550.5 379.3 561.3 368.5 574.5 368.5 587.7 368.5 598.5 379.3 598.5 392.5 598.5 405.7 587.7 416.5 574.5 416.5Z" fill="#557C55"/></g></svg>