<svg width="96" height="96" xmlns="http://www.w3.org/2000/svg" xmlns:xlink="http://www.w3.org/1999/xlink" xml:space="preserve" overflow="hidden"><g transform="translate(-796 -248)"><path d="M874 268 857 268 857 263C857 259.1 853.9 256 850 256L838 256C834.1 256 831 259.1 831 263L831 268 814 268C811.8 268 810 269.8 810 272L810 276 878 276 878 272C878 269.8 876.2 268 874 268ZM837 263C837 262.4 837.4 262 838 262L850 262C850.6 262 851 262.4 851 263L851 268 837 268 837 263Z" fill="#557C55"/><path d="M816 332C816 334.2 817.8 336 820 336L868 336C870.2 336 872 334.2 872 332L872 280 816 280 816 332ZM857 286 863 286 863 330 857 330 857 286ZM841 286 847 286 847 330 841 330 841 286ZM825 286 831 286 831 330 825 330 825 286Z" fill="#557C55"/></g></svg>